<svg xmlns="http://www.w3.org/2000/svg" width="640" height="1136" viewBox="0 0 640 1136">
  <rect width="640" height="1136"/>
  <g>
    <path d="M270.838,601.667l6.234-17.086h2.133l6.234,17.086h-2.719l-1.312-3.855h-6.48l-1.359,3.855Zm4.852-6.141h4.945q-.539-1.582-.85-2.479t-.539-1.588q-.229-.691-.463-1.406t-.621-1.934q-.41,1.266-.656,2.021l-.475,1.459q-.229.7-.527,1.57T275.689,595.526Z" fill="#fff"/>
    <path d="M287.854,598.737V584.6H290.3v13.934q0,.844.914.844h.832v2.3h-1.078a3.675,3.675,0,0,1-2.227-.65A2.656,2.656,0,0,1,287.854,598.737Z" fill="#fff"/>
    <path d="M294.591,587.054V584.6h2.449v2.449Zm0,14.625V589.515h2.449v12.164Z" fill="#fff"/>
    <path d="M307.9,598.1l1.8,1.617a6.728,6.728,0,0,1-1.893,1.506,5.131,5.131,0,0,1-2.479.592,5.774,5.774,0,0,1-3.814-1.436q-1.705-1.436-1.705-4.775t1.705-4.787a5.747,5.747,0,0,1,3.814-1.447,5.091,5.091,0,0,1,2.479.6,6.818,6.818,0,0,1,1.893,1.512l-1.8,1.605a3.1,3.1,0,0,0-2.473-1.266q-3.164,0-3.164,3.785t3.164,3.773A3.067,3.067,0,0,0,307.9,598.1Z" fill="#fff"/>
    <path d="M321.25,596.522h-7.57a2.911,2.911,0,0,0,.814,2.25,2.951,2.951,0,0,0,2.08.75,3.654,3.654,0,0,0,2.672-1.172l1.77,1.512a5.226,5.226,0,0,1-2.033,1.506,6.177,6.177,0,0,1-5.994-.762q-1.758-1.213-1.758-4.963,0-3.551,1.623-4.91a5.226,5.226,0,0,1,3.393-1.359,5,5,0,0,1,3.5,1.389,4.854,4.854,0,0,1,1.5,3.744Zm-7.57-2.016h5.133a3.065,3.065,0,0,0-.773-2.1,2.411,2.411,0,0,0-1.793-.727,2.445,2.445,0,0,0-1.811.727A2.968,2.968,0,0,0,313.68,594.507Z" fill="#fff"/>
    <path d="M324.7,601.679V591.39h-1.23v-1.875h1.23v-1.605a3.118,3.118,0,0,1,.938-2.5,3.511,3.511,0,0,1,2.367-.8h1.582v2.3H328.2q-1.066,0-1.066,1.008v1.605h2.449v1.875h-2.449v10.289Z" fill="#fff"/>
    <path d="M331.843,601.679V591.39h-1.23v-1.875h1.23v-1.605a3.118,3.118,0,0,1,.938-2.5,3.511,3.511,0,0,1,2.367-.8h1.582v2.3h-1.383q-1.066,0-1.066,1.008v1.605h2.449v1.875H334.28v10.289Z" fill="#fff"/>
    <path d="M347.968,596.522H340.4a2.911,2.911,0,0,0,.814,2.25,2.951,2.951,0,0,0,2.08.75,3.654,3.654,0,0,0,2.672-1.172l1.77,1.512a5.226,5.226,0,0,1-2.033,1.506,6.177,6.177,0,0,1-5.994-.762q-1.758-1.213-1.758-4.963,0-3.551,1.623-4.91a5.226,5.226,0,0,1,3.393-1.359,5,5,0,0,1,3.5,1.389,4.854,4.854,0,0,1,1.5,3.744Zm-7.57-2.016h5.133a3.065,3.065,0,0,0-.773-2.1,2.411,2.411,0,0,0-1.793-.727,2.445,2.445,0,0,0-1.811.727A2.968,2.968,0,0,0,340.4,594.507Z" fill="#fff"/>
    <path d="M351.025,601.679V584.6h2.449v10.629h.047l4.676-5.719h2.93l-4.2,4.758,4.77,7.406h-3.07L355.4,596l-1.922,2.191v3.492Z" fill="#fff"/>
    <path d="M364.092,601.69v-10.3h-1.219v-1.875h1.219V587.6l2.449-2.613v4.523h1.781v1.875h-1.781v10.3Z" fill="#fff"/>
  </g>
  <g>
    <path d="M295.178,540l4.676-12.814h1.6L306.129,540H304.09l-.984-2.892h-4.86L297.226,540Zm3.639-4.605h3.709q-.4-1.187-.638-1.859t-.4-1.191q-.171-.519-.347-1.055t-.466-1.45q-.308.949-.492,1.516l-.356,1.094q-.171.527-.4,1.178T298.816,535.395Z" fill="#9e9e9e"/>
    <path d="M307.509,535.676V527.2h1.942v8.253a2.617,2.617,0,1,0,5.221,0V527.2h1.942v8.473a4.162,4.162,0,0,1-1.327,3.221,4.889,4.889,0,0,1-6.456,0A4.169,4.169,0,0,1,307.509,535.676Z" fill="#9e9e9e"/>
    <path d="M319.075,540.009V527.2h4.482a4.228,4.228,0,0,1,3.9,2.153,4.364,4.364,0,0,1,.58,1.529,22.548,22.548,0,0,1,.105,2.725A18.1,18.1,0,0,1,328,536.5a4.008,4.008,0,0,1-.575,1.393,4.782,4.782,0,0,1-1.569,1.507,4.55,4.55,0,0,1-2.421.611Zm1.942-10.969v9.141h2.329a2.69,2.69,0,0,0,2.373-1.116,2.578,2.578,0,0,0,.4-1.042,31.62,31.62,0,0,0-.009-4.724,2.579,2.579,0,0,0-.479-1.187,2.68,2.68,0,0,0-2.285-1.072Z" fill="#9e9e9e"/>
    <path d="M330.413,540.009V527.2h1.942v12.806Z" fill="#9e9e9e"/>
    <path d="M334.623,533.61a21.58,21.58,0,0,1,.123-2.979,3.95,3.95,0,0,1,.439-1.23,4.8,4.8,0,0,1,1.472-1.573,4.708,4.708,0,0,1,5.063,0,5.011,5.011,0,0,1,1.49,1.573,4.09,4.09,0,0,1,.431,1.23,36.135,36.135,0,0,1,0,5.959,4.09,4.09,0,0,1-.431,1.23,4.852,4.852,0,0,1-1.49,1.569,4.781,4.781,0,0,1-5.062,0,4.657,4.657,0,0,1-1.472-1.569,3.95,3.95,0,0,1-.439-1.23A21.58,21.58,0,0,1,334.623,533.61Zm1.942,0a14.666,14.666,0,0,0,.136,2.566,2.644,2.644,0,0,0,.515,1.063,2.449,2.449,0,0,0,.791.664,2.681,2.681,0,0,0,2.373,0,2.449,2.449,0,0,0,.791-.664,2.642,2.642,0,0,0,.514-1.063,24.073,24.073,0,0,0,0-5.124,2.789,2.789,0,0,0-.514-1.081,2.616,2.616,0,0,0-.791-.65,2.643,2.643,0,0,0-2.373,0,2.616,2.616,0,0,0-.791.65,2.791,2.791,0,0,0-.515,1.081A14.588,14.588,0,0,0,336.565,533.61Z" fill="#9e9e9e"/>
  </g>
</svg>
