<svg xmlns="http://www.w3.org/2000/svg" width="640" height="1136" viewBox="0 0 640 1136">
<rect width="640" height="1136"/>
<g>
<path d="M294.41,591.792a29.911,29.911,0,0,1,.171-4.138,5.494,5.494,0,0,1,.61-1.709,6.673,6.673,0,0,1,2.045-2.186,6.539,6.539,0,0,1,7.031,0,6.958,6.958,0,0,1,2.069,2.186,5.707,5.707,0,0,1,.6,1.709,50.187,50.187,0,0,1,0,8.276,5.707,5.707,0,0,1-.6,1.709,6.733,6.733,0,0,1-2.069,2.179,6.641,6.641,0,0,1-7.031,0,6.465,6.465,0,0,1-2.045-2.179,5.494,5.494,0,0,1-.61-1.709A29.919,29.919,0,0,1,294.41,591.792Zm2.7,0a20.386,20.386,0,0,0,.188,3.564,3.672,3.672,0,0,0,.715,1.478,3.4,3.4,0,0,0,1.1.922,3.73,3.73,0,0,0,3.3,0,3.4,3.4,0,0,0,1.1-.922,3.671,3.671,0,0,0,.714-1.478,33.507,33.507,0,0,0,0-7.116,3.884,3.884,0,0,0-.714-1.5,3.638,3.638,0,0,0-1.1-.9,3.671,3.671,0,0,0-3.3,0,3.638,3.638,0,0,0-1.1.9,3.886,3.886,0,0,0-.715,1.5A20.275,20.275,0,0,0,297.108,591.792Z" fill="#fff"/>
<path d="M310.938,600.679V589.961h-1.282v-1.953h1.282v-1.672a3.248,3.248,0,0,1,.977-2.606,3.655,3.655,0,0,1,2.466-.836h1.647v2.393h-1.44q-1.11,0-1.11,1.05v1.672h2.551v1.953h-2.551v10.718Z" fill="#fff"/>
<path d="M318.384,600.679V589.961H317.1v-1.953h1.281v-1.672a3.248,3.248,0,0,1,.977-2.606,3.657,3.657,0,0,1,2.466-.836h1.648v2.393h-1.44q-1.112,0-1.111,1.05v1.672h2.552v1.953h-2.552v10.718Z" fill="#fff"/>
<path d="M332.141,600.728V599.6h-.049a2.064,2.064,0,0,1-1.062.952,5.176,5.176,0,0,1-1.978.317,4.453,4.453,0,0,1-3.174-1.123A3.558,3.558,0,0,1,324.707,597a3.728,3.728,0,0,1,1.013-2.661,3.994,3.994,0,0,1,2.991-1.1h3.43V591.9q.012-1.685-2.526-1.636a4.7,4.7,0,0,0-1.465.2,1.792,1.792,0,0,0-.867.793l-1.953-1.538a4.763,4.763,0,0,1,4.163-1.843,6.5,6.5,0,0,1,3.711.9,3.764,3.764,0,0,1,1.4,3.271v8.679Zm0-4.455v-.928h-2.966q-2.174.062-2.148,1.538a1.387,1.387,0,0,0,.562,1.1,2.551,2.551,0,0,0,1.77.5,4.217,4.217,0,0,0,2.2-.378Q332.141,597.7,332.141,596.272Z" fill="#fff"/>
<path d="M337.938,597.615V582.894h2.552v14.514q0,.879.952.879h.866v2.393h-1.123a3.831,3.831,0,0,1-2.319-.677A2.768,2.768,0,0,1,337.938,597.615Z" fill="#fff"/>
<path d="M290.15,630.679V615.286h-4.871v-2.393h12.439v2.393h-4.871v15.393Z" fill="#fff"/>
<path d="M309.656,625.308h-7.886a3.032,3.032,0,0,0,.849,2.344,3.071,3.071,0,0,0,2.167.781,3.8,3.8,0,0,0,2.783-1.221l1.843,1.575a5.442,5.442,0,0,1-2.118,1.568,6.436,6.436,0,0,1-6.243-.793q-1.831-1.264-1.831-5.17,0-3.7,1.69-5.115a5.446,5.446,0,0,1,3.534-1.416,5.2,5.2,0,0,1,3.649,1.447,5.053,5.053,0,0,1,1.563,3.9Zm-7.886-2.1h5.347a3.2,3.2,0,0,0-.806-2.185,2.51,2.51,0,0,0-1.867-.757,2.548,2.548,0,0,0-1.887.757A3.093,3.093,0,0,0,301.771,623.208Z" fill="#fff"/>
<path d="M312.842,630.679V612.894h2.552v11.071h.049l4.87-5.957h3.052l-4.37,4.956,4.969,7.715h-3.2l-3.369-5.92-2,2.282v3.638Z" fill="#fff"/>
<path d="M333.423,630.667V629.36a4.249,4.249,0,0,1-3.271,1.465,4.023,4.023,0,0,1-2.081-.494,4.423,4.423,0,0,1-1.264-1.044,4.075,4.075,0,0,1-.751-1.5,29.344,29.344,0,0,1,0-6.86,4.2,4.2,0,0,1,.751-1.514,4.712,4.712,0,0,1,1.264-1.044,3.949,3.949,0,0,1,2.081-.507,4.377,4.377,0,0,1,3.271,1.5v-1.355h2.551v12.378a5.109,5.109,0,0,1-1.666,4.212,5.893,5.893,0,0,1-3.827,1.354,5.3,5.3,0,0,1-2.393-.586,6.6,6.6,0,0,1-2.014-1.538l1.978-1.574a4.66,4.66,0,0,0,1.1.806,2.879,2.879,0,0,0,1.373.342,3.056,3.056,0,0,0,2.082-.708A2.546,2.546,0,0,0,333.423,630.667Zm-5.018-6.312a15.924,15.924,0,0,0,.08,2.026,1.948,1.948,0,0,0,.421.928,2.793,2.793,0,0,0,.757.659,2.327,2.327,0,0,0,1.27.317,2.251,2.251,0,0,0,1.239-.317,3.055,3.055,0,0,0,.763-.659,2.024,2.024,0,0,0,.409-.928,25.995,25.995,0,0,0,0-4.053,2.112,2.112,0,0,0-.409-.939,3.352,3.352,0,0,0-.763-.653,2.22,2.22,0,0,0-1.239-.323,2.294,2.294,0,0,0-1.27.323,3.038,3.038,0,0,0-.757.653,2.03,2.03,0,0,0-.421.939A15.945,15.945,0,0,0,328.405,624.355Z" fill="#fff"/>
<path d="M339.147,624.331a10.775,10.775,0,0,1,.317-3.039,4.828,4.828,0,0,1,1.05-1.807,5.894,5.894,0,0,1,1.446-1.1,5.753,5.753,0,0,1,4.8,0,5.861,5.861,0,0,1,1.452,1.1,4.841,4.841,0,0,1,1.05,1.807,10.775,10.775,0,0,1,.317,3.039,10.952,10.952,0,0,1-.317,3.076,4.833,4.833,0,0,1-1.05,1.807,5.506,5.506,0,0,1-1.452,1.1,5.882,5.882,0,0,1-4.8,0,5.533,5.533,0,0,1-1.446-1.1,4.82,4.82,0,0,1-1.05-1.807A10.952,10.952,0,0,1,339.147,624.331Zm7.9.024a9.2,9.2,0,0,0-.14-1.94,3.442,3.442,0,0,0-.482-1.074,2.366,2.366,0,0,0-2.051-.928,2.324,2.324,0,0,0-2.051.928,2.976,2.976,0,0,0-.494,1.074,9.739,9.739,0,0,0-.129,1.916,10.134,10.134,0,0,0,.129,1.96,2.853,2.853,0,0,0,.494,1.067,2.322,2.322,0,0,0,2.051.928,2.363,2.363,0,0,0,2.051-.928,3.291,3.291,0,0,0,.482-1.062A9.2,9.2,0,0,0,347.045,624.355Z" fill="#fff"/>
<path d="M276.809,651.792a29.911,29.911,0,0,1,.171-4.138,5.494,5.494,0,0,1,.61-1.709,6.673,6.673,0,0,1,2.045-2.186,6.539,6.539,0,0,1,7.031,0,6.958,6.958,0,0,1,2.069,2.186,5.707,5.707,0,0,1,.6,1.709,50.187,50.187,0,0,1,0,8.276,5.707,5.707,0,0,1-.6,1.709,6.733,6.733,0,0,1-2.069,2.179,6.641,6.641,0,0,1-7.031,0,6.465,6.465,0,0,1-2.045-2.179,5.494,5.494,0,0,1-.61-1.709A29.919,29.919,0,0,1,276.809,651.792Zm2.7,0a20.386,20.386,0,0,0,.188,3.564,3.672,3.672,0,0,0,.715,1.478,3.4,3.4,0,0,0,1.1.922,3.73,3.73,0,0,0,3.3,0,3.4,3.4,0,0,0,1.1-.922,3.671,3.671,0,0,0,.714-1.478,33.507,33.507,0,0,0,0-7.116,3.884,3.884,0,0,0-.714-1.5,3.638,3.638,0,0,0-1.1-.9,3.671,3.671,0,0,0-3.3,0,3.638,3.638,0,0,0-1.1.9,3.886,3.886,0,0,0-.715,1.5A20.275,20.275,0,0,0,279.507,651.792Z" fill="#fff"/>
<path d="M292.934,660.679V648.008h2.552v1.355h.049a3.961,3.961,0,0,1,3.3-1.5,4.256,4.256,0,0,1,2.648.977l-1.843,2.2a2.79,2.79,0,0,0-1.685-.622,2.608,2.608,0,0,0-1.7.629,2.469,2.469,0,0,0-.763,2.02v7.617Z" fill="#fff"/>
<path d="M303.224,645.444v-2.551h2.552v2.551Zm0,15.234V648.008h2.552v12.671Z" fill="#fff"/>
<path d="M309.645,660.679V642.894H312.2v6.47h.049a3.961,3.961,0,0,1,3.3-1.5,4.464,4.464,0,0,1,2.851,1.123,3.984,3.984,0,0,1,1.373,3.271v8.423h-2.551v-7.544a2.718,2.718,0,0,0-.715-2,2.4,2.4,0,0,0-1.775-.72,2.45,2.45,0,0,0-1.813.72,2.722,2.722,0,0,0-.714,2v7.544Z" fill="#fff"/>
<path d="M330.273,660.728V659.6h-.049a2.064,2.064,0,0,1-1.062.952,5.176,5.176,0,0,1-1.978.317,4.453,4.453,0,0,1-3.174-1.123A3.558,3.558,0,0,1,322.84,657a3.728,3.728,0,0,1,1.013-2.661,3.994,3.994,0,0,1,2.991-1.1h3.43V651.9q.012-1.685-2.526-1.636a4.7,4.7,0,0,0-1.465.2,1.792,1.792,0,0,0-.867.793l-1.953-1.538a4.763,4.763,0,0,1,4.163-1.843,6.5,6.5,0,0,1,3.711.9,3.764,3.764,0,0,1,1.4,3.271v8.679Zm0-4.455v-.928h-2.966q-2.174.062-2.148,1.538a1.387,1.387,0,0,0,.562,1.1,2.551,2.551,0,0,0,1.77.5,4.217,4.217,0,0,0,2.2-.378Q330.273,657.7,330.273,656.272Z" fill="#fff"/>
<path d="M336.071,656.431v-8.423h2.552v7.557a2.716,2.716,0,0,0,.714,2.008,2.454,2.454,0,0,0,1.813.714,2.409,2.409,0,0,0,1.776-.714,2.712,2.712,0,0,0,.714-2.008v-7.557h2.552v12.671H343.64v-1.343h-.049a3.947,3.947,0,0,1-3.271,1.489,4.5,4.5,0,0,1-2.874-1.116A3.979,3.979,0,0,1,336.071,656.431Z" fill="#fff"/>
<path d="M348.583,658.567l1.782-1.758a5.505,5.505,0,0,0,3.992,1.623,3.55,3.55,0,0,0,1.794-.408,1.321,1.321,0,0,0,.708-1.215q0-1.11-1.55-1.245l-2.246-.208a4.33,4.33,0,0,1-2.612-1.037,3.223,3.223,0,0,1-1.038-2.552,3.382,3.382,0,0,1,1.355-2.917,5.563,5.563,0,0,1,3.369-.989,7.7,7.7,0,0,1,2.844.471,7.794,7.794,0,0,1,2.124,1.251l-1.574,1.855a8.581,8.581,0,0,0-1.562-.843,4.8,4.8,0,0,0-1.831-.329,2.54,2.54,0,0,0-1.7.434,1.411,1.411,0,0,0-.476,1.092,1.072,1.072,0,0,0,.354.77,2.1,2.1,0,0,0,1.318.427l2.1.146a3.734,3.734,0,0,1,2.82,1.215,4.038,4.038,0,0,1,.854,2.582,3.258,3.258,0,0,1-1.526,2.881,6.577,6.577,0,0,1-3.723,1.013A7.926,7.926,0,0,1,348.583,658.567Z" fill="#fff"/>
<path d="M269.509,690.679V672.894h2.552l5.1,11.6,4.992-11.6h2.552v17.785h-2.7v-11.1h-.049l-3.723,8.557h-2.246l-3.724-8.557h-.061v11.1Z" fill="#fff"/>
<path d="M288.808,675.444v-2.551h2.552v2.551Zm0,15.234V678.008h2.552v12.671Z" fill="#fff"/>
<path d="M295.229,690.679V678.008h2.551v1.355h.049a3.961,3.961,0,0,1,3.3-1.5,4.464,4.464,0,0,1,2.851,1.123,3.984,3.984,0,0,1,1.373,3.271v8.423H302.8v-7.544a2.718,2.718,0,0,0-.715-2,2.4,2.4,0,0,0-1.775-.72,2.45,2.45,0,0,0-1.813.72,2.722,2.722,0,0,0-.714,2v7.544Z" fill="#fff"/>
<path d="M309.217,675.444v-2.551h2.552v2.551Zm0,15.234V678.008h2.552v12.671Z" fill="#fff"/>
<path d="M315.638,690.679V672.894h2.551v11.071h.049l4.871-5.957h3.052l-4.37,4.956,4.968,7.715h-3.2l-3.369-5.92-2,2.282v3.638Z" fill="#fff"/>
<path d="M328.479,684.331a10.775,10.775,0,0,1,.317-3.039,4.841,4.841,0,0,1,1.05-1.807,5.894,5.894,0,0,1,1.446-1.1,5.753,5.753,0,0,1,4.8,0,5.887,5.887,0,0,1,1.453,1.1,4.841,4.841,0,0,1,1.05,1.807,10.812,10.812,0,0,1,.317,3.039,10.989,10.989,0,0,1-.317,3.076,4.833,4.833,0,0,1-1.05,1.807,5.528,5.528,0,0,1-1.453,1.1,5.882,5.882,0,0,1-4.8,0,5.533,5.533,0,0,1-1.446-1.1,4.833,4.833,0,0,1-1.05-1.807A10.952,10.952,0,0,1,328.479,684.331Zm7.9.024a9.115,9.115,0,0,0-.141-1.94,3.442,3.442,0,0,0-.482-1.074,2.363,2.363,0,0,0-2.051-.928,2.326,2.326,0,0,0-2.051.928,2.976,2.976,0,0,0-.494,1.074,9.759,9.759,0,0,0-.128,1.916,10.155,10.155,0,0,0,.128,1.96,2.853,2.853,0,0,0,.494,1.067,2.324,2.324,0,0,0,2.051.928,2.361,2.361,0,0,0,2.051-.928,3.291,3.291,0,0,0,.482-1.062A9.119,9.119,0,0,0,336.377,684.355Z" fill="#fff"/>
<path d="M342.248,690.679V678.008H344.8v1.355h.049a4.551,4.551,0,0,1,5.408-1.025,7.612,7.612,0,0,1,1.465,1.172,5.153,5.153,0,0,1,4-1.648,4.46,4.46,0,0,1,2.85,1.123,3.981,3.981,0,0,1,1.374,3.271v8.423H357.4v-7.544a2.709,2.709,0,0,0-.72-2,2.423,2.423,0,0,0-1.782-.72,2.45,2.45,0,0,0-1.813.72,2.722,2.722,0,0,0-.714,2v7.544h-2.539v-7.544a2.709,2.709,0,0,0-.72-2,2.423,2.423,0,0,0-1.782-.72,2.45,2.45,0,0,0-1.813.72,2.722,2.722,0,0,0-.714,2v7.544Z" fill="#fff"/>
<path d="M363.964,675.444v-2.551h2.551v2.551Zm0,15.234V678.008h2.551v12.671Z" fill="#fff"/>
<path d="M249.105,718.506l2.173-1.574a2.7,2.7,0,0,0,2.368,1.208,3.578,3.578,0,0,0,2.045-.714,2.865,2.865,0,0,0,1.031-2.533v-12h2.7v12.268a5.163,5.163,0,0,1-1.771,4.169,5.928,5.928,0,0,1-3.918,1.5,5.552,5.552,0,0,1-2.71-.641A5.654,5.654,0,0,1,249.105,718.506Z" fill="#fff"/>
<path d="M262.631,714.331a10.775,10.775,0,0,1,.317-3.039,4.828,4.828,0,0,1,1.05-1.807,5.894,5.894,0,0,1,1.446-1.1,5.753,5.753,0,0,1,4.8,0,5.861,5.861,0,0,1,1.452,1.1,4.841,4.841,0,0,1,1.05,1.807,10.775,10.775,0,0,1,.317,3.039,10.952,10.952,0,0,1-.317,3.076,4.833,4.833,0,0,1-1.05,1.807,5.506,5.506,0,0,1-1.452,1.1,5.882,5.882,0,0,1-4.8,0,5.533,5.533,0,0,1-1.446-1.1,4.82,4.82,0,0,1-1.05-1.807A10.952,10.952,0,0,1,262.631,714.331Zm7.9.024a9.2,9.2,0,0,0-.14-1.94,3.442,3.442,0,0,0-.482-1.074,2.366,2.366,0,0,0-2.051-.928,2.324,2.324,0,0,0-2.051.928,2.976,2.976,0,0,0-.494,1.074,9.739,9.739,0,0,0-.129,1.916,10.134,10.134,0,0,0,.129,1.96,2.853,2.853,0,0,0,.494,1.067,2.322,2.322,0,0,0,2.051.928,2.363,2.363,0,0,0,2.051-.928,3.291,3.291,0,0,0,.482-1.062A9.2,9.2,0,0,0,270.528,714.355Z" fill="#fff"/>
<path d="M276.253,720.679V702.894H278.8v6.47h.049a3.961,3.961,0,0,1,3.3-1.5A4.464,4.464,0,0,1,285,708.984a3.984,3.984,0,0,1,1.373,3.271v8.423h-2.552v-7.544a2.718,2.718,0,0,0-.714-2,2.4,2.4,0,0,0-1.776-.72,2.447,2.447,0,0,0-1.812.72,2.722,2.722,0,0,0-.714,2v7.544Z" fill="#fff"/>
<path d="M290.169,720.679V708.008h2.551v1.355h.049a3.961,3.961,0,0,1,3.3-1.5,4.464,4.464,0,0,1,2.851,1.123,3.984,3.984,0,0,1,1.373,3.271v8.423h-2.551v-7.544a2.718,2.718,0,0,0-.715-2,2.4,2.4,0,0,0-1.775-.72,2.45,2.45,0,0,0-1.813.72,2.722,2.722,0,0,0-.714,2v7.544Z" fill="#fff"/>
<path d="M310.8,720.679V702.894h11.377v2.551H313.5v5.066h7.4v2.4h-7.4v5.225h8.68v2.539Z" fill="#fff"/>
<path d="M325.116,720.691v-10.73h-1.27v-1.953h1.27v-1.989l2.551-2.723v4.712h1.855v1.953h-1.855v10.73Z" fill="#fff"/>
<path d="M342.169,715.308h-7.886a3.028,3.028,0,0,0,.849,2.344,3.069,3.069,0,0,0,2.166.781,3.8,3.8,0,0,0,2.783-1.221l1.844,1.575a5.449,5.449,0,0,1-2.118,1.568,6.438,6.438,0,0,1-6.244-.793q-1.831-1.264-1.831-5.17,0-3.7,1.691-5.115a5.446,5.446,0,0,1,3.533-1.416,5.2,5.2,0,0,1,3.65,1.447,5.057,5.057,0,0,1,1.563,3.9Zm-7.886-2.1h5.347a3.2,3.2,0,0,0-.806-2.185,2.512,2.512,0,0,0-1.868-.757,2.546,2.546,0,0,0-1.886.757A3.093,3.093,0,0,0,334.283,713.208Z" fill="#fff"/>
<path d="M345.354,720.679V708.008h2.551v1.355h.049a3.961,3.961,0,0,1,3.3-1.5,4.261,4.261,0,0,1,2.649.977l-1.844,2.2a2.79,2.79,0,0,0-1.685-.622,2.608,2.608,0,0,0-1.7.629,2.472,2.472,0,0,0-.763,2.02v7.617Z" fill="#fff"/>
<path d="M355.571,720.679V708.008h2.551v1.355h.049a3.961,3.961,0,0,1,3.3-1.5,4.464,4.464,0,0,1,2.851,1.123,3.984,3.984,0,0,1,1.373,3.271v8.423H363.14v-7.544a2.718,2.718,0,0,0-.715-2,2.4,2.4,0,0,0-1.775-.72,2.45,2.45,0,0,0-1.813.72,2.722,2.722,0,0,0-.714,2v7.544Z" fill="#fff"/>
<path d="M376.2,720.728V719.6h-.049a2.064,2.064,0,0,1-1.062.952,5.176,5.176,0,0,1-1.978.317,4.453,4.453,0,0,1-3.174-1.123A3.558,3.558,0,0,1,368.767,717a3.728,3.728,0,0,1,1.013-2.661,3.994,3.994,0,0,1,2.991-1.1h3.43V711.9q.012-1.685-2.526-1.636a4.7,4.7,0,0,0-1.465.2,1.792,1.792,0,0,0-.867.793l-1.953-1.538a4.763,4.763,0,0,1,4.163-1.843,6.5,6.5,0,0,1,3.711.9,3.764,3.764,0,0,1,1.4,3.271v8.679Zm0-4.455v-.928h-2.966q-2.174.062-2.148,1.538a1.387,1.387,0,0,0,.562,1.1,2.551,2.551,0,0,0,1.77.5,4.217,4.217,0,0,0,2.2-.378Q376.2,717.7,376.2,716.272Z" fill="#fff"/>
<path d="M382,717.615V702.894h2.552v14.514q0,.879.952.879h.866v2.393h-1.123a3.831,3.831,0,0,1-2.319-.677A2.768,2.768,0,0,1,382,717.615Z" fill="#fff"/>
<path d="M214.55,750.679V732.894h6.958a5.276,5.276,0,0,1,3.613,1.172,5.614,5.614,0,0,1,1.263,1.623,4.552,4.552,0,0,1,.52,2.173,5.2,5.2,0,0,1-.922,3.046,4.933,4.933,0,0,1-2.533,1.874l4.126,7.9h-3.2l-3.674-7.593h-3.455v7.593Zm2.7-15.393v5.4h4.077a2.9,2.9,0,0,0,2.271-.843,2.862,2.862,0,0,0,.757-1.978,2.362,2.362,0,0,0-.9-2.026,3.266,3.266,0,0,0-1.965-.549Z" fill="#fff"/>
<path d="M230.149,735.444v-2.551H232.7v2.551Zm0,15.234V738.008H232.7v12.671Z" fill="#fff"/>
<path d="M244.017,746.956l1.88,1.685a7.019,7.019,0,0,1-1.972,1.568,5.344,5.344,0,0,1-2.582.616,6.015,6.015,0,0,1-3.974-1.5q-1.775-1.5-1.775-4.975t1.775-4.986a5.989,5.989,0,0,1,3.974-1.508,5.3,5.3,0,0,1,2.582.623,7.108,7.108,0,0,1,1.972,1.574l-1.88,1.673a3.228,3.228,0,0,0-2.576-1.318q-3.3,0-3.3,3.942t3.3,3.931A3.2,3.2,0,0,0,244.017,746.956Z" fill="#fff"/>
<path d="M248.166,750.679V732.894h2.552v6.47h.049a3.961,3.961,0,0,1,3.3-1.5,4.464,4.464,0,0,1,2.851,1.123,3.984,3.984,0,0,1,1.373,3.271v8.423h-2.552v-7.544a2.718,2.718,0,0,0-.714-2,2.4,2.4,0,0,0-1.776-.72,2.447,2.447,0,0,0-1.812.72,2.722,2.722,0,0,0-.714,2v7.544Z" fill="#fff"/>
<path d="M268.8,750.728V749.6h-.049a2.066,2.066,0,0,1-1.062.952,5.176,5.176,0,0,1-1.978.317,4.455,4.455,0,0,1-3.174-1.123A3.558,3.558,0,0,1,261.361,747a3.729,3.729,0,0,1,1.014-2.661,3.991,3.991,0,0,1,2.99-1.1H268.8V741.9q.012-1.685-2.527-1.636a4.7,4.7,0,0,0-1.465.2,1.79,1.79,0,0,0-.866.793l-1.953-1.538a4.76,4.76,0,0,1,4.162-1.843,6.5,6.5,0,0,1,3.711.9,3.762,3.762,0,0,1,1.4,3.271v8.679Zm0-4.455v-.928h-2.967q-2.172.062-2.148,1.538a1.389,1.389,0,0,0,.562,1.1,2.556,2.556,0,0,0,1.771.5,4.222,4.222,0,0,0,2.2-.378Q268.8,747.7,268.8,746.272Z" fill="#fff"/>
<path d="M274.594,750.679V738.008h2.551v1.355h.049a3.961,3.961,0,0,1,3.3-1.5,4.261,4.261,0,0,1,2.649.977l-1.844,2.2a2.79,2.79,0,0,0-1.685-.622,2.608,2.608,0,0,0-1.7.629,2.472,2.472,0,0,0-.763,2.02v7.617Z" fill="#fff"/>
<path d="M292.379,750.679V749.36a4.249,4.249,0,0,1-3.271,1.465,4.046,4.046,0,0,1-3.394-1.636,3.637,3.637,0,0,1-.721-1.593,19.485,19.485,0,0,1-.183-3.266,19.032,19.032,0,0,1,.183-3.229,3.725,3.725,0,0,1,.721-1.593,4.368,4.368,0,0,1,1.379-1.178,4.073,4.073,0,0,1,2.015-.471,3.765,3.765,0,0,1,1.77.415,6.735,6.735,0,0,1,1.5,1.087v-6.47h2.551v17.785Zm-2.49-10.266q-1.808,0-2.167,1.232a9.545,9.545,0,0,0-.36,2.686,9.684,9.684,0,0,0,.36,2.723q.36,1.233,2.167,1.232,1.77,0,2.13-1.281a9.834,9.834,0,0,0,.36-2.674,9.7,9.7,0,0,0-.36-2.637Q291.658,740.413,289.889,740.413Z" fill="#fff"/>
<path d="M304.987,750.679V732.894h11.377v2.551h-8.679v5.066h7.4v2.4h-7.4v5.225h8.679v2.539Z" fill="#fff"/>
<path d="M325.873,750.679V732.894H337.25v2.551h-8.68v5.237h7.4v2.4h-7.4v7.593Z" fill="#fff"/>
<path d="M339.568,747.615V732.894h2.552v14.514q0,.879.952.879h.866v2.393h-1.123A3.831,3.831,0,0,1,340.5,750,2.768,2.768,0,0,1,339.568,747.615Z" fill="#fff"/>
<path d="M353.228,750.728V749.6h-.049a2.064,2.064,0,0,1-1.062.952,5.176,5.176,0,0,1-1.978.317,4.453,4.453,0,0,1-3.174-1.123A3.558,3.558,0,0,1,345.794,747a3.728,3.728,0,0,1,1.013-2.661,3.994,3.994,0,0,1,2.991-1.1h3.43V741.9q.012-1.685-2.526-1.636a4.7,4.7,0,0,0-1.465.2,1.792,1.792,0,0,0-.867.793l-1.953-1.538a4.763,4.763,0,0,1,4.163-1.843,6.5,6.5,0,0,1,3.711.9,3.764,3.764,0,0,1,1.4,3.271v8.679Zm0-4.455v-.928h-2.966q-2.174.062-2.148,1.538a1.387,1.387,0,0,0,.562,1.1,2.551,2.551,0,0,0,1.77.5,4.217,4.217,0,0,0,2.2-.378Q353.228,747.7,353.228,746.272Z" fill="#fff"/>
<path d="M359.025,750.679V738.008h2.552v1.355h.049a3.961,3.961,0,0,1,3.3-1.5,4.464,4.464,0,0,1,2.851,1.123,3.984,3.984,0,0,1,1.373,3.271v8.423h-2.552v-7.544a2.718,2.718,0,0,0-.714-2,2.4,2.4,0,0,0-1.776-.72,2.447,2.447,0,0,0-1.812.72,2.722,2.722,0,0,0-.714,2v7.544Z" fill="#fff"/>
<path d="M379.655,750.728V749.6h-.049a2.066,2.066,0,0,1-1.062.952,5.176,5.176,0,0,1-1.978.317,4.455,4.455,0,0,1-3.174-1.123A3.558,3.558,0,0,1,372.221,747a3.729,3.729,0,0,1,1.014-2.661,3.991,3.991,0,0,1,2.99-1.1h3.431V741.9q.012-1.685-2.527-1.636a4.7,4.7,0,0,0-1.465.2,1.79,1.79,0,0,0-.866.793l-1.953-1.538a4.76,4.76,0,0,1,4.162-1.843,6.5,6.5,0,0,1,3.711.9,3.762,3.762,0,0,1,1.4,3.271v8.679Zm0-4.455v-.928h-2.967q-2.172.062-2.148,1.538a1.389,1.389,0,0,0,.562,1.1,2.556,2.556,0,0,0,1.771.5,4.222,4.222,0,0,0,2.2-.378Q379.655,747.7,379.655,746.272Z" fill="#fff"/>
<path d="M392.569,750.667V749.36a4.247,4.247,0,0,1-3.271,1.465,4.026,4.026,0,0,1-2.081-.494,4.437,4.437,0,0,1-1.264-1.044,4.075,4.075,0,0,1-.751-1.5,29.345,29.345,0,0,1,0-6.86,4.2,4.2,0,0,1,.751-1.514,4.728,4.728,0,0,1,1.264-1.044,3.951,3.951,0,0,1,2.081-.507,4.376,4.376,0,0,1,3.271,1.5v-1.355h2.552v12.378a5.11,5.11,0,0,1-1.667,4.212,5.89,5.89,0,0,1-3.826,1.354,5.293,5.293,0,0,1-2.393-.586,6.6,6.6,0,0,1-2.015-1.538l1.978-1.574a4.68,4.68,0,0,0,1.1.806,2.883,2.883,0,0,0,1.374.342,3.053,3.053,0,0,0,2.081-.708A2.546,2.546,0,0,0,392.569,750.667Zm-5.017-6.312a16.184,16.184,0,0,0,.079,2.026,1.957,1.957,0,0,0,.421.928,2.793,2.793,0,0,0,.757.659,2.329,2.329,0,0,0,1.27.317,2.251,2.251,0,0,0,1.239-.317,3.038,3.038,0,0,0,.763-.659,2.014,2.014,0,0,0,.409-.928,25.995,25.995,0,0,0,0-4.053,2.1,2.1,0,0,0-.409-.939,3.331,3.331,0,0,0-.763-.653,2.22,2.22,0,0,0-1.239-.323,2.3,2.3,0,0,0-1.27.323,3.038,3.038,0,0,0-.757.653,2.04,2.04,0,0,0-.421.939A16.206,16.206,0,0,0,387.553,744.355Z" fill="#fff"/>
<path d="M405.631,750.728V749.6h-.049a2.066,2.066,0,0,1-1.062.952,5.176,5.176,0,0,1-1.978.317,4.455,4.455,0,0,1-3.174-1.123A3.558,3.558,0,0,1,398.2,747a3.729,3.729,0,0,1,1.014-2.661,3.991,3.991,0,0,1,2.99-1.1h3.431V741.9q.012-1.685-2.527-1.636a4.7,4.7,0,0,0-1.465.2,1.79,1.79,0,0,0-.866.793l-1.953-1.538a4.76,4.76,0,0,1,4.162-1.843,6.5,6.5,0,0,1,3.711.9,3.762,3.762,0,0,1,1.4,3.271v8.679Zm0-4.455v-.928h-2.967q-2.172.062-2.148,1.538a1.389,1.389,0,0,0,.562,1.1,2.556,2.556,0,0,0,1.771.5,4.222,4.222,0,0,0,2.2-.378Q405.631,747.7,405.631,746.272Z" fill="#fff"/>
<path d="M411.429,750.679V738.008h2.551v1.355h.049a3.961,3.961,0,0,1,3.3-1.5,4.464,4.464,0,0,1,2.851,1.123,3.984,3.984,0,0,1,1.373,3.271v8.423H419v-7.544a2.718,2.718,0,0,0-.715-2,2.4,2.4,0,0,0-1.775-.72,2.45,2.45,0,0,0-1.813.72,2.722,2.722,0,0,0-.714,2v7.544Z" fill="#fff"/>
</g>
<g>
<path d="M290.33,540.009V528.926h-3.507V527.2h8.956v1.723h-3.507v11.083Z" fill="#9e9e9e"/>
<path d="M297.15,540.009V527.2h8.191v1.837h-6.249v3.647h5.326v1.731h-5.326v3.762h6.249v1.828Z" fill="#9e9e9e"/>
<path d="M306.036,538.356l1.283-1.459a5.947,5.947,0,0,0,1.661.932,5.576,5.576,0,0,0,1.969.352,3.113,3.113,0,0,0,1.863-.492,1.526,1.526,0,0,0,.677-1.292q0-1.512-1.67-1.731-.439-.053-.817-.105l-.879-.123a3.949,3.949,0,0,1-2.531-1.217,3.488,3.488,0,0,1-.87-2.386,3.574,3.574,0,0,1,1.095-2.689,4.257,4.257,0,0,1,3.08-1.055,6.519,6.519,0,0,1,2.232.378,9.081,9.081,0,0,1,1.925.958l-1.081,1.6a7.146,7.146,0,0,0-1.512-.712,5.142,5.142,0,0,0-1.652-.272,2.5,2.5,0,0,0-1.521.457,1.589,1.589,0,0,0-.624,1.371,1.51,1.51,0,0,0,.422,1.02,2.275,2.275,0,0,0,1.4.624q.255.044.615.092t.826.1a3.8,3.8,0,0,1,2.65,1.3,3.758,3.758,0,0,1,.856,2.391,3.31,3.31,0,0,1-1.222,2.742,5.105,5.105,0,0,1-3.278.976A7.163,7.163,0,0,1,306.036,538.356Z" fill="#9e9e9e"/>
<path d="M319.659,540.009V528.926h-3.507V527.2h8.956v1.723H321.6v11.083Z" fill="#9e9e9e"/>
<path d="M326.479,540.009V527.2h1.942v12.806Z" fill="#9e9e9e"/>
<path d="M331.12,540.009V527.2h1.837l5.792,9.105h.035V527.2h1.951v12.806H338.9l-5.792-9.105h-.044v9.105Z" fill="#9e9e9e"/>
<path d="M347.582,534.8V532.96h4.553v2.61a4.372,4.372,0,0,1-1.327,3.226,4.427,4.427,0,0,1-3.243,1.318,4.275,4.275,0,0,1-2.535-.725,4.661,4.661,0,0,1-1.473-1.569,3.95,3.95,0,0,1-.439-1.23,36.135,36.135,0,0,1,0-5.959,3.95,3.95,0,0,1,.439-1.23,4.809,4.809,0,0,1,1.473-1.573,4.656,4.656,0,0,1,5.546.382,4.856,4.856,0,0,1,1.489,2.676h-2.048a2.826,2.826,0,0,0-.883-1.292,2.33,2.33,0,0,0-1.569-.554,2.385,2.385,0,0,0-1.187.281,2.616,2.616,0,0,0-.791.65,2.789,2.789,0,0,0-.514,1.081,24.073,24.073,0,0,0,0,5.124,2.642,2.642,0,0,0,.514,1.063,2.449,2.449,0,0,0,.791.664,2.416,2.416,0,0,0,1.187.277,2.548,2.548,0,0,0,1.868-.756,2.654,2.654,0,0,0,.76-1.969V534.8Z" fill="#9e9e9e"/>
</g>
</svg>
