<svg xmlns="http://www.w3.org/2000/svg" width="640" height="1136" viewBox="0 0 640 1136">
  <rect width="640" height="1136" style="opacity: 0.4"/>
  <path d="M227.984,665.679h-2.7v-7.764h-7.056v7.764h-2.7V647.894h2.7v7.617h7.056v-7.617h2.7v7.617h7.056v-7.617h2.7v17.785h-2.7v-7.764h-7.056Zm19,0V647.894h2.7v17.785Zm15.974,0-5.872-17.785h2.844l4.053,13.537h.049l4.053-13.537h2.844l-5.872,17.785Zm15.363,0V647.894H289.7v2.551H281.02v5.066h7.4v2.4h-7.4v5.225H289.7v2.539Zm19.392,0V647.894h6.958a5.275,5.275,0,0,1,3.613,1.172,5.615,5.615,0,0,1,1.263,1.623,4.557,4.557,0,0,1,.519,2.173,5.2,5.2,0,0,1-.921,3.046,4.935,4.935,0,0,1-2.533,1.874l4.126,7.9h-3.2l-3.674-7.593h-3.455v7.593Zm2.7-15.393v5.4h4.077a2.9,2.9,0,0,0,2.271-.843,2.864,2.864,0,0,0,.757-1.978,2.363,2.363,0,0,0-.9-2.026,3.267,3.267,0,0,0-1.965-.549Zm16.5,13.1,1.782-2.026A8.243,8.243,0,0,0,321,662.651a7.727,7.727,0,0,0,2.734.488,4.323,4.323,0,0,0,2.588-.684,2.117,2.117,0,0,0,.94-1.794q0-2.1-2.319-2.405-.611-.073-1.136-.146l-1.221-.171a5.478,5.478,0,0,1-3.515-1.69,4.844,4.844,0,0,1-1.208-3.314,4.965,4.965,0,0,1,1.52-3.735,5.914,5.914,0,0,1,4.278-1.465,9.064,9.064,0,0,1,3.1.525,12.607,12.607,0,0,1,2.674,1.33l-1.5,2.222a9.94,9.94,0,0,0-2.1-.988,7.152,7.152,0,0,0-2.295-.379,3.475,3.475,0,0,0-2.111.635,2.208,2.208,0,0,0-.867,1.9,2.1,2.1,0,0,0,.585,1.416,3.163,3.163,0,0,0,1.941.867c.235.041.521.083.854.128s.716.092,1.147.141a5.281,5.281,0,0,1,3.681,1.807,5.221,5.221,0,0,1,1.189,3.32,4.6,4.6,0,0,1-1.7,3.809,7.093,7.093,0,0,1-4.554,1.354A9.945,9.945,0,0,1,316.91,663.384Zm19.525,2.283,6.494-17.8h2.222l6.494,17.8h-2.832l-1.367-4.017H340.7l-1.416,4.017Zm5.054-6.4h5.151q-.561-1.648-.885-2.582t-.562-1.654q-.239-.719-.482-1.465t-.646-2.014q-.428,1.318-.684,2.105l-.5,1.52q-.237.732-.549,1.636T341.489,659.271Zm17.891,6.408V647.894h2.7v17.785Zm11.945,0V647.894h6.958a5.276,5.276,0,0,1,3.613,1.172,5.614,5.614,0,0,1,1.263,1.623,4.552,4.552,0,0,1,.52,2.173,5.2,5.2,0,0,1-.922,3.046,4.933,4.933,0,0,1-2.533,1.874l4.126,7.9h-3.2l-3.674-7.593h-3.455v7.593Zm2.7-15.393v5.4H378.1a2.9,2.9,0,0,0,2.271-.843,2.862,2.862,0,0,0,.757-1.978,2.362,2.362,0,0,0-.9-2.026,3.266,3.266,0,0,0-1.965-.549Zm18.049,15.393V647.894h11.377v2.551H394.77v5.066h7.4v2.4h-7.4v5.225h8.679v2.539Zm17.842-2.295,1.782-2.026A8.24,8.24,0,0,0,414,662.651a7.732,7.732,0,0,0,2.734.488,4.323,4.323,0,0,0,2.588-.684,2.117,2.117,0,0,0,.94-1.794q0-2.1-2.319-2.405-.611-.073-1.136-.146l-1.221-.171a5.479,5.479,0,0,1-3.516-1.69,4.843,4.843,0,0,1-1.208-3.314,4.965,4.965,0,0,1,1.52-3.735,5.914,5.914,0,0,1,4.278-1.465,9.064,9.064,0,0,1,3.1.525,12.607,12.607,0,0,1,2.674,1.33l-1.5,2.222a9.94,9.94,0,0,0-2.1-.988,7.152,7.152,0,0,0-2.295-.379,3.475,3.475,0,0,0-2.111.635,2.209,2.209,0,0,0-.867,1.9,2.1,2.1,0,0,0,.586,1.416,3.163,3.163,0,0,0,1.941.867c.235.041.521.083.854.128s.716.092,1.147.141a5.281,5.281,0,0,1,3.681,1.807,5.221,5.221,0,0,1,1.189,3.32,4.6,4.6,0,0,1-1.7,3.809,7.093,7.093,0,0,1-4.554,1.354A9.945,9.945,0,0,1,409.913,663.384Z" fill="#fff"/>
  <g style="opacity: 0.2">
    <g>
      <g>
        <line x1="120" y1="1136" x2="120" y2="1134.25" fill="none" stroke="white" stroke-miterlimit="10" stroke-width="2"/>
        <line x1="120" y1="1132.749" x2="120" y2="2.501" fill="none" stroke="white" stroke-miterlimit="10" stroke-width="2" stroke-dasharray="3.5,1.5"/>
        <line x1="120" y1="1.75" x2="120" fill="none" stroke="white" stroke-miterlimit="10" stroke-width="2"/>
      </g>
      <g>
        <line x1="520" x2="520" y2="1.75" fill="none" stroke="white" stroke-miterlimit="10" stroke-width="2"/>
        <line x1="520" y1="3.251" x2="520" y2="1133.499" fill="none" stroke="white" stroke-miterlimit="10" stroke-width="2" stroke-dasharray="3.5,1.5"/>
        <line x1="520" y1="1134.25" x2="520" y2="1136" fill="none" stroke="white" stroke-miterlimit="10" stroke-width="2"/>
      </g>
    </g>
  </g>
</svg>
