<svg xmlns="http://www.w3.org/2000/svg" width="640" height="1136" viewBox="0 0 640 1136">
  <rect width="640" height="1136"/>
  <g>
    <path d="M204.79,601.679l-2.649-8.862h-.049l-2.648,8.862H197.2l-4.053-12.671h2.7l2.43,8.875h.049l2.868-8.875h1.855l2.869,8.875h.049l2.429-8.875h2.7l-4.053,12.671Z" fill="#fff"/>
    <path d="M212.858,586.444v-2.551h2.552v2.551Zm0,15.234V589.008h2.552v12.671Z" fill="#fff"/>
    <path d="M218.779,601.679V583.894h2.551v11.071h.049l4.871-5.957H229.3l-4.37,4.956,4.968,7.715h-3.2l-3.369-5.92-2,2.282v3.638Z" fill="#fff"/>
    <path d="M231.816,586.444v-2.551h2.551v2.551Zm0,15.234V589.008h2.551v12.671Z" fill="#fff"/>
    <path d="M237.81,601.679V599.14h2.552v2.539Z" fill="#fff"/>
    <path d="M246.647,595.209l-4.15-6.2h3.052l2.527,4.1,2.526-4.1h3.052l-4.15,6.2,4.321,6.47h-3.052l-2.7-4.211-2.7,4.211h-3.052Z" fill="#fff"/>
    <path d="M258.647,595.209l-4.15-6.2h3.052l2.526,4.1,2.527-4.1h3.052l-4.15,6.2,4.321,6.47h-3.052l-2.7-4.211-2.7,4.211h-3.052Z" fill="#fff"/>
    <path d="M267.8,586.444v-2.551h2.551v2.551Zm0,15.234V589.008h2.551v12.671Z" fill="#fff"/>
    <path d="M273.8,586.444v-2.551h2.552v2.551Zm0,15.234V589.008h2.552v12.671Z" fill="#fff"/>
    <path d="M282.561,601.679l-4.639-12.671h2.7l2.966,8.875h.049l2.979-8.875h2.7l-4.651,12.671Z" fill="#fff"/>
    <path d="M293.657,601.679l-4.639-12.671h2.7l2.967,8.875h.049l2.979-8.875h2.7l-4.65,12.671Z" fill="#fff"/>
    <path d="M301.982,601.679V599.14h2.551v2.539Z" fill="#fff"/>
    <path d="M315.349,597.956l1.88,1.685a7.014,7.014,0,0,1-1.971,1.568,5.347,5.347,0,0,1-2.582.616,6.015,6.015,0,0,1-3.974-1.5q-1.775-1.5-1.776-4.975t1.776-4.986a5.989,5.989,0,0,1,3.974-1.508,5.307,5.307,0,0,1,2.582.623,7.1,7.1,0,0,1,1.971,1.574l-1.88,1.673a3.225,3.225,0,0,0-2.575-1.318q-3.3,0-3.3,3.942t3.3,3.931A3.2,3.2,0,0,0,315.349,597.956Z" fill="#fff"/>
    <path d="M318.376,595.331a10.775,10.775,0,0,1,.317-3.039,4.841,4.841,0,0,1,1.05-1.807,5.894,5.894,0,0,1,1.446-1.1,5.753,5.753,0,0,1,4.8,0,5.887,5.887,0,0,1,1.453,1.1,4.841,4.841,0,0,1,1.05,1.807,10.812,10.812,0,0,1,.317,3.039,10.989,10.989,0,0,1-.317,3.076,4.833,4.833,0,0,1-1.05,1.807,5.528,5.528,0,0,1-1.453,1.1,5.882,5.882,0,0,1-4.8,0,5.533,5.533,0,0,1-1.446-1.1,4.833,4.833,0,0,1-1.05-1.807A10.952,10.952,0,0,1,318.376,595.331Zm7.9.024a9.115,9.115,0,0,0-.141-1.94,3.442,3.442,0,0,0-.482-1.074,2.363,2.363,0,0,0-2.051-.928,2.326,2.326,0,0,0-2.051.928,2.976,2.976,0,0,0-.494,1.074,9.759,9.759,0,0,0-.128,1.916,10.155,10.155,0,0,0,.128,1.96,2.853,2.853,0,0,0,.494,1.067,2.324,2.324,0,0,0,2.051.928,2.361,2.361,0,0,0,2.051-.928,3.291,3.291,0,0,0,.482-1.062A9.119,9.119,0,0,0,326.274,595.355Z" fill="#fff"/>
    <path d="M331.646,601.679V589.008H334.2v1.355h.049a4.551,4.551,0,0,1,5.408-1.025,7.612,7.612,0,0,1,1.465,1.172,5.153,5.153,0,0,1,4-1.648,4.46,4.46,0,0,1,2.85,1.123,3.981,3.981,0,0,1,1.374,3.271v8.423h-2.552v-7.544a2.709,2.709,0,0,0-.72-2,2.423,2.423,0,0,0-1.782-.72,2.45,2.45,0,0,0-1.813.72,2.722,2.722,0,0,0-.714,2v7.544h-2.539v-7.544a2.709,2.709,0,0,0-.72-2,2.423,2.423,0,0,0-1.782-.72,2.45,2.45,0,0,0-1.813.72,2.722,2.722,0,0,0-.714,2v7.544Z" fill="#fff"/>
    <path d="M351.335,601.825l5.97-18.091h1.953l-5.97,18.091Z" fill="#fff"/>
    <path d="M361.1,601.679V589.008h2.552v1.355h.049a3.961,3.961,0,0,1,3.3-1.5,4.464,4.464,0,0,1,2.851,1.123,3.984,3.984,0,0,1,1.373,3.271v8.423h-2.552v-7.544a2.718,2.718,0,0,0-.714-2,2.4,2.4,0,0,0-1.776-.72,2.447,2.447,0,0,0-1.812.72,2.722,2.722,0,0,0-.714,2v7.544Z" fill="#fff"/>
    <path d="M381.23,601.728V600.6h-.049a2.066,2.066,0,0,1-1.062.952,5.176,5.176,0,0,1-1.978.317,4.455,4.455,0,0,1-3.174-1.123A3.558,3.558,0,0,1,373.8,598a3.729,3.729,0,0,1,1.014-2.661,3.991,3.991,0,0,1,2.99-1.1h3.431V592.9q.012-1.685-2.527-1.636a4.7,4.7,0,0,0-1.465.2,1.79,1.79,0,0,0-.866.793l-1.953-1.538a4.76,4.76,0,0,1,4.162-1.843,6.5,6.5,0,0,1,3.711.9,3.762,3.762,0,0,1,1.4,3.271v8.679Zm0-4.455v-.928h-2.967q-2.172.062-2.148,1.538a1.389,1.389,0,0,0,.562,1.1,2.556,2.556,0,0,0,1.771.5,4.222,4.222,0,0,0,2.2-.378Q381.23,598.7,381.23,597.272Z" fill="#fff"/>
    <path d="M386.675,601.691v-10.73h-1.27v-1.953h1.27v-1.989l2.551-2.723v4.712h1.855v1.953h-1.855v10.73Z" fill="#fff"/>
    <path d="M400.188,601.728V600.6h-.049a2.064,2.064,0,0,1-1.062.952,5.176,5.176,0,0,1-1.978.317,4.453,4.453,0,0,1-3.174-1.123A3.558,3.558,0,0,1,392.754,598a3.728,3.728,0,0,1,1.013-2.661,3.994,3.994,0,0,1,2.991-1.1h3.43V592.9q.012-1.685-2.526-1.636a4.7,4.7,0,0,0-1.465.2,1.792,1.792,0,0,0-.867.793l-1.953-1.538a4.763,4.763,0,0,1,4.163-1.843,6.5,6.5,0,0,1,3.711.9,3.764,3.764,0,0,1,1.4,3.271v8.679Zm0-4.455v-.928h-2.966q-2.174.062-2.148,1.538a1.387,1.387,0,0,0,.562,1.1,2.551,2.551,0,0,0,1.77.5,4.217,4.217,0,0,0,2.2-.378Q400.188,598.7,400.188,597.272Z" fill="#fff"/>
    <path d="M405.485,601.679V589.008h2.552v1.355h.049a3.961,3.961,0,0,1,3.3-1.5,4.464,4.464,0,0,1,2.851,1.123,3.984,3.984,0,0,1,1.373,3.271v8.423h-2.552v-7.544a2.718,2.718,0,0,0-.714-2,2.4,2.4,0,0,0-1.776-.72,2.447,2.447,0,0,0-1.812.72,2.722,2.722,0,0,0-.714,2v7.544Z" fill="#fff"/>
    <path d="M418.975,586.444v-2.551h2.551v2.551Zm0,15.234V589.008h2.551v12.671Z" fill="#fff"/>
    <path d="M434.648,596.308h-7.886a3.028,3.028,0,0,0,.849,2.344,3.069,3.069,0,0,0,2.166.781,3.8,3.8,0,0,0,2.783-1.221l1.844,1.575a5.449,5.449,0,0,1-2.118,1.568,6.438,6.438,0,0,1-6.244-.793q-1.831-1.264-1.831-5.17,0-3.7,1.691-5.115a5.446,5.446,0,0,1,3.533-1.416,5.2,5.2,0,0,1,3.65,1.447,5.057,5.057,0,0,1,1.563,3.9Zm-7.886-2.1h5.347a3.2,3.2,0,0,0-.806-2.185,2.512,2.512,0,0,0-1.868-.757,2.546,2.546,0,0,0-1.886.757A3.093,3.093,0,0,0,426.763,594.208Z" fill="#fff"/>
    <path d="M440.178,601.679l-4.639-12.671h2.7l2.966,8.875h.049l2.979-8.875h2.7l-4.651,12.671Z" fill="#fff"/>
  </g>
  <g>
    <path d="M287.18,538.356l1.283-1.459a5.947,5.947,0,0,0,1.661.932,5.576,5.576,0,0,0,1.969.352,3.113,3.113,0,0,0,1.863-.492,1.526,1.526,0,0,0,.677-1.292q0-1.512-1.67-1.731-.439-.053-.817-.105l-.879-.123a3.949,3.949,0,0,1-2.531-1.217,3.488,3.488,0,0,1-.87-2.386,3.573,3.573,0,0,1,1.094-2.689,4.259,4.259,0,0,1,3.081-1.055,6.519,6.519,0,0,1,2.232.378,9.081,9.081,0,0,1,1.925.958l-1.081,1.6a7.146,7.146,0,0,0-1.512-.712,5.142,5.142,0,0,0-1.652-.272,2.5,2.5,0,0,0-1.521.457,1.589,1.589,0,0,0-.624,1.371,1.51,1.51,0,0,0,.422,1.02,2.275,2.275,0,0,0,1.4.624q.255.044.615.092t.826.1a3.8,3.8,0,0,1,2.649,1.3,3.759,3.759,0,0,1,.857,2.391,3.31,3.31,0,0,1-1.222,2.742,5.105,5.105,0,0,1-3.278.976A7.163,7.163,0,0,1,287.18,538.356Z" fill="#9e9e9e"/>
    <path d="M298.623,540.009V527.2h8.191v1.837h-6.249v3.647h5.326v1.731h-5.326v3.762h6.249v1.828Z" fill="#9e9e9e"/>
    <path d="M308.625,540.009V527.2h8.191v1.837h-6.249v3.647h5.326v1.731h-5.326v3.762h6.249v1.828Z" fill="#9e9e9e"/>
    <path d="M325.175,540.009v-5.265l-3.841-7.541h2.039l2.725,5.687,2.716-5.687h2.048l-3.85,7.541v5.265Z" fill="#9e9e9e"/>
    <path d="M331.512,533.61a21.58,21.58,0,0,1,.123-2.979,3.95,3.95,0,0,1,.439-1.23,4.8,4.8,0,0,1,1.472-1.573,4.708,4.708,0,0,1,5.063,0,5.011,5.011,0,0,1,1.49,1.573,4.09,4.09,0,0,1,.431,1.23,36.135,36.135,0,0,1,0,5.959,4.09,4.09,0,0,1-.431,1.23,4.852,4.852,0,0,1-1.49,1.569,4.781,4.781,0,0,1-5.062,0,4.657,4.657,0,0,1-1.472-1.569,3.95,3.95,0,0,1-.439-1.23A21.58,21.58,0,0,1,331.512,533.61Zm1.942,0a14.666,14.666,0,0,0,.136,2.566,2.644,2.644,0,0,0,.515,1.063,2.449,2.449,0,0,0,.791.664,2.681,2.681,0,0,0,2.373,0,2.449,2.449,0,0,0,.791-.664,2.642,2.642,0,0,0,.514-1.063,24.073,24.073,0,0,0,0-5.124,2.789,2.789,0,0,0-.514-1.081,2.616,2.616,0,0,0-.791-.65,2.643,2.643,0,0,0-2.373,0,2.616,2.616,0,0,0-.791.65,2.791,2.791,0,0,0-.515,1.081A14.588,14.588,0,0,0,333.454,533.61Z" fill="#9e9e9e"/>
    <path d="M342.691,535.676V527.2h1.942v8.253a2.617,2.617,0,1,0,5.221,0V527.2H351.8v8.473a4.162,4.162,0,0,1-1.327,3.221,4.889,4.889,0,0,1-6.456,0A4.169,4.169,0,0,1,342.691,535.676Z" fill="#9e9e9e"/>
  </g>
</svg>
