<svg xmlns="http://www.w3.org/2000/svg" width="640" height="1136" viewBox="0 0 640 1136">
  <rect width="640" height="1136"/>
  <g>
    <path d="M225.617,601.679V584.6h5.977a5.637,5.637,0,0,1,5.2,2.871,5.819,5.819,0,0,1,.773,2.039,30.064,30.064,0,0,1,.141,3.633,24.157,24.157,0,0,1-.193,3.85,5.345,5.345,0,0,1-.768,1.857,6.374,6.374,0,0,1-2.092,2.01,6.069,6.069,0,0,1-3.229.814Zm2.59-14.625v12.188h3.105a3.586,3.586,0,0,0,3.164-1.488,3.438,3.438,0,0,0,.533-1.389,42.394,42.394,0,0,0-.012-6.3,3.44,3.44,0,0,0-.639-1.582,3.573,3.573,0,0,0-3.047-1.43Z" fill="#fff"/>
    <path d="M250.367,596.522H242.8a2.911,2.911,0,0,0,.814,2.25,2.951,2.951,0,0,0,2.08.75,3.654,3.654,0,0,0,2.672-1.172l1.77,1.512a5.226,5.226,0,0,1-2.033,1.506,6.177,6.177,0,0,1-5.994-.762q-1.758-1.213-1.758-4.963,0-3.551,1.623-4.91a5.226,5.226,0,0,1,3.393-1.359,5,5,0,0,1,3.5,1.389,4.854,4.854,0,0,1,1.5,3.744Zm-7.57-2.016h5.133a3.065,3.065,0,0,0-.773-2.1,2.411,2.411,0,0,0-1.793-.727,2.445,2.445,0,0,0-1.811.727A2.968,2.968,0,0,0,242.8,594.507Z" fill="#fff"/>
    <path d="M256.155,601.679,251.7,589.515h2.59l2.848,8.52h.047l2.859-8.52h2.59l-4.465,12.164Z" fill="#fff"/>
    <path d="M264.628,587.054V584.6h2.449v2.449Zm0,14.625V589.515h2.449v12.164Z" fill="#fff"/>
    <path d="M270.791,601.679V589.515h2.449v1.3h.047a3.8,3.8,0,0,1,3.164-1.441,4.28,4.28,0,0,1,2.736,1.078,3.822,3.822,0,0,1,1.318,3.141v8.086h-2.449v-7.242a2.611,2.611,0,0,0-.686-1.922,2.3,2.3,0,0,0-1.705-.691,2.347,2.347,0,0,0-1.74.691,2.611,2.611,0,0,0-.686,1.922v7.242Z" fill="#fff"/>
    <path d="M293.514,596.522h-7.57a2.911,2.911,0,0,0,.814,2.25,2.951,2.951,0,0,0,2.08.75,3.654,3.654,0,0,0,2.672-1.172l1.77,1.512a5.226,5.226,0,0,1-2.033,1.506,6.177,6.177,0,0,1-5.994-.762q-1.758-1.213-1.758-4.963,0-3.551,1.623-4.91a5.226,5.226,0,0,1,3.393-1.359,5,5,0,0,1,3.5,1.389,4.854,4.854,0,0,1,1.5,3.744Zm-7.57-2.016h5.133a3.065,3.065,0,0,0-.773-2.1,2.411,2.411,0,0,0-1.793-.727,2.445,2.445,0,0,0-1.811.727A2.968,2.968,0,0,0,285.943,594.507Z" fill="#fff"/>
    <path d="M303.017,601.679V584.6h2.59v14.637h8.332v2.438Z" fill="#fff"/>
    <path d="M316.621,597.6v-8.086h2.449v7.254a2.606,2.606,0,0,0,.686,1.928,2.358,2.358,0,0,0,1.74.686,2.315,2.315,0,0,0,1.705-.686,2.606,2.606,0,0,0,.686-1.928v-7.254h2.449v12.164h-2.449V600.39h-.047a3.79,3.79,0,0,1-3.141,1.43,4.32,4.32,0,0,1-2.76-1.072A3.818,3.818,0,0,1,316.621,597.6Z" fill="#fff"/>
    <path d="M336.425,601.679V584.6h2.59v14.637h8.332v2.438Z" fill="#fff"/>
    <path d="M350.1,587.054V584.6h2.449v2.449Zm0,14.625V589.515h2.449v12.164Z" fill="#fff"/>
    <path d="M356.264,601.679V589.515h2.449v1.3h.047a3.8,3.8,0,0,1,3.164-1.441,4.28,4.28,0,0,1,2.736,1.078,3.822,3.822,0,0,1,1.318,3.141v8.086h-2.449v-7.242a2.611,2.611,0,0,0-.686-1.922,2.3,2.3,0,0,0-1.705-.691,2.347,2.347,0,0,0-1.74.691,2.611,2.611,0,0,0-.686,1.922v7.242Z" fill="#fff"/>
    <path d="M372.354,601.679,367.9,589.515h2.59l2.848,8.52h.047l2.859-8.52h2.59l-4.465,12.164Z" fill="#fff"/>
    <path d="M390.119,596.522h-7.57a2.911,2.911,0,0,0,.814,2.25,2.951,2.951,0,0,0,2.08.75,3.654,3.654,0,0,0,2.672-1.172l1.77,1.512a5.226,5.226,0,0,1-2.033,1.506,6.177,6.177,0,0,1-5.994-.762q-1.758-1.213-1.758-4.963,0-3.551,1.623-4.91a5.226,5.226,0,0,1,3.393-1.359,5,5,0,0,1,3.5,1.389,4.854,4.854,0,0,1,1.5,3.744Zm-7.57-2.016h5.133a3.065,3.065,0,0,0-.773-2.1,2.411,2.411,0,0,0-1.793-.727,2.445,2.445,0,0,0-1.811.727A2.968,2.968,0,0,0,382.549,594.507Z" fill="#fff"/>
    <path d="M400.009,601.667v-1.254a4.078,4.078,0,0,1-3.141,1.406,3.87,3.87,0,0,1-2-.475,4.263,4.263,0,0,1-1.213-1,3.911,3.911,0,0,1-.721-1.441,28.137,28.137,0,0,1,0-6.586,4.02,4.02,0,0,1,.721-1.453,4.537,4.537,0,0,1,1.213-1,3.8,3.8,0,0,1,2-.486,4.2,4.2,0,0,1,3.141,1.441v-1.3h2.449V601.4a4.905,4.905,0,0,1-1.6,4.043,5.658,5.658,0,0,1-3.674,1.3,5.083,5.083,0,0,1-2.3-.562,6.336,6.336,0,0,1-1.934-1.477l1.9-1.512a4.444,4.444,0,0,0,1.061.773,2.76,2.76,0,0,0,1.318.328,2.929,2.929,0,0,0,2-.68A2.443,2.443,0,0,0,400.009,601.667Zm-4.816-6.059a15.5,15.5,0,0,0,.076,1.945,1.882,1.882,0,0,0,.4.891,2.708,2.708,0,0,0,.727.633,2.238,2.238,0,0,0,1.219.3,2.161,2.161,0,0,0,1.189-.3,2.94,2.94,0,0,0,.732-.633,1.939,1.939,0,0,0,.393-.891,24.878,24.878,0,0,0,0-3.891,2.017,2.017,0,0,0-.393-.9,3.192,3.192,0,0,0-.732-.627,2.129,2.129,0,0,0-1.189-.311,2.2,2.2,0,0,0-1.219.311,2.919,2.919,0,0,0-.727.627,1.956,1.956,0,0,0-.4.9A15.5,15.5,0,0,0,395.192,595.608Z" fill="#fff"/>
    <path d="M412.548,601.726v-1.078H412.5a1.98,1.98,0,0,1-1.02.914,4.973,4.973,0,0,1-1.9.3,4.281,4.281,0,0,1-3.047-1.078,3.418,3.418,0,0,1-1.125-2.637,3.58,3.58,0,0,1,.973-2.555,3.831,3.831,0,0,1,2.871-1.055h3.293v-1.289q.012-1.617-2.426-1.57a4.5,4.5,0,0,0-1.406.188,1.718,1.718,0,0,0-.832.762l-1.875-1.477a4.569,4.569,0,0,1,4-1.77,6.242,6.242,0,0,1,3.563.867,3.612,3.612,0,0,1,1.348,3.141v8.332Zm0-4.277v-.891H409.7q-2.086.059-2.062,1.477a1.332,1.332,0,0,0,.539,1.055,2.454,2.454,0,0,0,1.7.48,4.052,4.052,0,0,0,2.109-.363Q412.548,598.819,412.548,597.448Z" fill="#fff"/>
  </g>
  <g>
    <path d="M262.307,540.009V527.2h4.482a4.228,4.228,0,0,1,3.9,2.153,4.364,4.364,0,0,1,.58,1.529,22.548,22.548,0,0,1,.105,2.725,18.1,18.1,0,0,1-.146,2.887,4.008,4.008,0,0,1-.575,1.393,4.782,4.782,0,0,1-1.569,1.507,4.55,4.55,0,0,1-2.421.611Zm1.942-10.969v9.141h2.329a2.69,2.69,0,0,0,2.373-1.116,2.578,2.578,0,0,0,.4-1.042,31.62,31.62,0,0,0-.009-4.724,2.579,2.579,0,0,0-.479-1.187,2.68,2.68,0,0,0-2.285-1.072Z" fill="#9e9e9e"/>
    <path d="M273.645,540.009V527.2h8.191v1.837h-6.249v3.647h5.326v1.731h-5.326v3.762h6.249v1.828Z" fill="#9e9e9e"/>
    <path d="M286.547,540.009,282.319,527.2h2.048l2.918,9.747h.035l2.918-9.747h2.048l-4.228,12.806Z" fill="#9e9e9e"/>
    <path d="M293.648,540.009V527.2h8.191v1.837h-6.249v3.647h5.326v1.731h-5.326v3.762h6.249v1.828Z" fill="#9e9e9e"/>
    <path d="M303.65,540.009V527.2h1.942v10.978h6.249v1.828Z" fill="#9e9e9e"/>
    <path d="M313.222,533.61a21.58,21.58,0,0,1,.123-2.979,3.95,3.95,0,0,1,.439-1.23,4.8,4.8,0,0,1,1.472-1.573,4.708,4.708,0,0,1,5.063,0,5.011,5.011,0,0,1,1.49,1.573,4.09,4.09,0,0,1,.431,1.23,36.135,36.135,0,0,1,0,5.959,4.09,4.09,0,0,1-.431,1.23,4.852,4.852,0,0,1-1.49,1.569,4.781,4.781,0,0,1-5.062,0,4.657,4.657,0,0,1-1.472-1.569,3.95,3.95,0,0,1-.439-1.23A21.58,21.58,0,0,1,313.222,533.61Zm1.942,0a14.666,14.666,0,0,0,.136,2.566,2.644,2.644,0,0,0,.515,1.063,2.449,2.449,0,0,0,.791.664,2.681,2.681,0,0,0,2.373,0,2.449,2.449,0,0,0,.791-.664,2.642,2.642,0,0,0,.514-1.063,24.073,24.073,0,0,0,0-5.124,2.789,2.789,0,0,0-.514-1.081,2.616,2.616,0,0,0-.791-.65,2.643,2.643,0,0,0-2.373,0,2.616,2.616,0,0,0-.791.65,2.791,2.791,0,0,0-.515,1.081A14.588,14.588,0,0,0,315.164,533.61Z" fill="#9e9e9e"/>
    <path d="M324.63,540.009V527.2h4.649a6.406,6.406,0,0,1,1.437.158,3.762,3.762,0,0,1,1.438.738,3.614,3.614,0,0,1,.984,1.235,3.936,3.936,0,0,1,.4,1.824,4.044,4.044,0,0,1-1.024,2.61,3.658,3.658,0,0,1-2.992,1.239h-2.953v5Zm1.942-10.969v4.131h2.883a1.96,1.96,0,0,0,1.612-.65,2.19,2.19,0,0,0,.532-1.415,1.89,1.89,0,0,0-.835-1.705,2.426,2.426,0,0,0-1.38-.36Z" fill="#9e9e9e"/>
    <path d="M335.3,540.009V527.2h1.837l3.674,8.35,3.595-8.35h1.837v12.806H344.3V532.02h-.035l-2.681,6.161h-1.617l-2.681-6.161h-.044v7.989Z" fill="#9e9e9e"/>
    <path d="M348.94,540.009V527.2h8.191v1.837h-6.249v3.647h5.326v1.731h-5.326v3.762h6.249v1.828Z" fill="#9e9e9e"/>
    <path d="M358.942,540.009V527.2h1.837l5.792,9.105h.035V527.2h1.951v12.806h-1.837l-5.792-9.105h-.044v9.105Z" fill="#9e9e9e"/>
    <path d="M373.427,540.009V528.926H369.92V527.2h8.956v1.723h-3.507v11.083Z" fill="#9e9e9e"/>
  </g>
  <g>
    <path d="M235.472,731.476l1.711-1.945a7.93,7.93,0,0,0,2.215,1.242,7.435,7.435,0,0,0,2.625.469,4.151,4.151,0,0,0,2.484-.656,2.034,2.034,0,0,0,.9-1.723q0-2.016-2.227-2.309-.586-.07-1.09-.141l-1.172-.164a5.265,5.265,0,0,1-3.375-1.623,4.65,4.65,0,0,1-1.16-3.182,4.765,4.765,0,0,1,1.459-3.586,5.677,5.677,0,0,1,4.107-1.406,8.692,8.692,0,0,1,2.977.5,12.108,12.108,0,0,1,2.566,1.277l-1.441,2.133a9.529,9.529,0,0,0-2.016-.949,6.856,6.856,0,0,0-2.2-.363,3.337,3.337,0,0,0-2.027.609,2.119,2.119,0,0,0-.832,1.828,2.014,2.014,0,0,0,.563,1.359,3.033,3.033,0,0,0,1.863.832q.34.059.82.123t1.1.135a5.07,5.07,0,0,1,3.533,1.734A5.011,5.011,0,0,1,248,728.862a4.413,4.413,0,0,1-1.629,3.656,6.807,6.807,0,0,1-4.371,1.3A9.55,9.55,0,0,1,235.472,731.476Z" fill="#fff"/>
    <path d="M253.729,733.679l-4.453-12.164h2.59l2.848,8.52h.047l2.859-8.52h2.59l-4.465,12.164Z" fill="#fff"/>
    <path d="M271.494,728.522h-7.57a2.911,2.911,0,0,0,.814,2.25,2.951,2.951,0,0,0,2.08.75,3.654,3.654,0,0,0,2.672-1.172l1.77,1.512a5.226,5.226,0,0,1-2.033,1.506,6.177,6.177,0,0,1-5.994-.762q-1.758-1.213-1.758-4.963,0-3.551,1.623-4.91a5.226,5.226,0,0,1,3.393-1.359,5,5,0,0,1,3.5,1.389,4.854,4.854,0,0,1,1.5,3.744Zm-7.57-2.016h5.133a3.065,3.065,0,0,0-.773-2.1,2.411,2.411,0,0,0-1.793-.727,2.445,2.445,0,0,0-1.811.727A2.968,2.968,0,0,0,263.924,726.507Z" fill="#fff"/>
    <path d="M274.553,733.679V721.515H277v1.3h.047a3.8,3.8,0,0,1,3.164-1.441,4.28,4.28,0,0,1,2.736,1.078,3.822,3.822,0,0,1,1.318,3.141v8.086h-2.449v-7.242a2.611,2.611,0,0,0-.686-1.922,2.3,2.3,0,0,0-1.705-.691,2.347,2.347,0,0,0-1.74.691,2.611,2.611,0,0,0-.686,1.922v7.242Z" fill="#fff"/>
    <path d="M294.356,733.679V716.6h6.621a5.124,5.124,0,0,1,3.779,1.283,4.465,4.465,0,0,1,1.283,3.3,4.273,4.273,0,0,1-.516,2.027,4,4,0,0,1-2,1.641v.047a3.169,3.169,0,0,1,2.1,1.482,4.7,4.7,0,0,1,.691,2.455,4.583,4.583,0,0,1-1.412,3.527,4.735,4.735,0,0,1-3.334,1.313ZM300.7,718.9h-3.75v4.9h3.75a2.737,2.737,0,0,0,2.074-.715,2.53,2.53,0,0,0,0-3.451A2.7,2.7,0,0,0,300.7,718.9Zm.234,7.2h-3.984v5.145h3.984a2.584,2.584,0,1,0,0-5.145Z" fill="#fff"/>
    <path d="M318.625,728.522h-7.57a2.911,2.911,0,0,0,.814,2.25,2.951,2.951,0,0,0,2.08.75,3.654,3.654,0,0,0,2.672-1.172l1.77,1.512a5.226,5.226,0,0,1-2.033,1.506,6.177,6.177,0,0,1-5.994-.762q-1.758-1.213-1.758-4.963,0-3.551,1.623-4.91a5.226,5.226,0,0,1,3.393-1.359,5,5,0,0,1,3.5,1.389,4.854,4.854,0,0,1,1.5,3.744Zm-7.57-2.016h5.133a3.065,3.065,0,0,0-.773-2.1,2.411,2.411,0,0,0-1.793-.727,2.445,2.445,0,0,0-1.811.727A2.968,2.968,0,0,0,311.055,726.507Z" fill="#fff"/>
    <path d="M321.684,733.679V721.515h2.449v1.3h.047a3.8,3.8,0,0,1,3.164-1.441,4.084,4.084,0,0,1,2.543.938l-1.77,2.109a2.677,2.677,0,0,0-1.617-.6,2.507,2.507,0,0,0-1.635.6,2.373,2.373,0,0,0-.732,1.939v7.313Z" fill="#fff"/>
    <path d="M338.323,733.667v-1.254a4.078,4.078,0,0,1-3.141,1.406,3.87,3.87,0,0,1-2-.475,4.263,4.263,0,0,1-1.213-1,3.911,3.911,0,0,1-.721-1.441,28.137,28.137,0,0,1,0-6.586,4.02,4.02,0,0,1,.721-1.453,4.537,4.537,0,0,1,1.213-1,3.8,3.8,0,0,1,2-.486,4.2,4.2,0,0,1,3.141,1.441v-1.3h2.449V733.4a4.905,4.905,0,0,1-1.6,4.043,5.658,5.658,0,0,1-3.674,1.3,5.083,5.083,0,0,1-2.3-.562,6.336,6.336,0,0,1-1.934-1.477l1.9-1.512a4.444,4.444,0,0,0,1.061.773,2.76,2.76,0,0,0,1.318.328,2.929,2.929,0,0,0,2-.68A2.443,2.443,0,0,0,338.323,733.667Zm-4.816-6.059a15.5,15.5,0,0,0,.076,1.945,1.882,1.882,0,0,0,.4.891,2.708,2.708,0,0,0,.727.633,2.238,2.238,0,0,0,1.219.3,2.161,2.161,0,0,0,1.189-.3,2.94,2.94,0,0,0,.732-.633,1.939,1.939,0,0,0,.393-.891,24.878,24.878,0,0,0,0-3.891,2.017,2.017,0,0,0-.393-.9,3.192,3.192,0,0,0-.732-.627,2.129,2.129,0,0,0-1.189-.311,2.2,2.2,0,0,0-1.219.311,2.919,2.919,0,0,0-.727.627,1.956,1.956,0,0,0-.4.9A15.5,15.5,0,0,0,333.507,727.608Z" fill="#fff"/>
    <path d="M343.069,731.651l1.711-1.687a5.284,5.284,0,0,0,3.832,1.559,3.407,3.407,0,0,0,1.723-.393,1.267,1.267,0,0,0,.68-1.166q0-1.066-1.488-1.2l-2.156-.2a4.16,4.16,0,0,1-2.508-1,3.1,3.1,0,0,1-1-2.449,3.247,3.247,0,0,1,1.3-2.8,5.34,5.34,0,0,1,3.234-.949,7.4,7.4,0,0,1,2.73.451,7.485,7.485,0,0,1,2.039,1.2l-1.512,1.781a8.225,8.225,0,0,0-1.5-.809,4.609,4.609,0,0,0-1.758-.316,2.439,2.439,0,0,0-1.629.416,1.358,1.358,0,0,0-.457,1.049,1.03,1.03,0,0,0,.34.738,2.019,2.019,0,0,0,1.266.41l2.016.141a3.581,3.581,0,0,1,2.707,1.166,3.874,3.874,0,0,1,.82,2.479A3.127,3.127,0,0,1,352,732.847a6.317,6.317,0,0,1-3.574.973A7.611,7.611,0,0,1,343.069,731.651Z" fill="#fff"/>
    <path d="M356.557,733.69v-10.3h-1.219v-1.875h1.219V719.6l2.449-2.613v4.523h1.781v1.875h-1.781v10.3Z" fill="#fff"/>
    <path d="M363.564,733.679V721.515h2.449v1.3h.047a3.8,3.8,0,0,1,3.164-1.441,4.084,4.084,0,0,1,2.543.938L370,724.421a2.677,2.677,0,0,0-1.617-.6,2.507,2.507,0,0,0-1.635.6,2.373,2.373,0,0,0-.732,1.939v7.313Z" fill="#fff"/>
    <path d="M372.774,727.585a10.358,10.358,0,0,1,.3-2.918,4.64,4.64,0,0,1,1.008-1.734,5.678,5.678,0,0,1,1.389-1.055,5.527,5.527,0,0,1,4.611,0,5.645,5.645,0,0,1,1.395,1.055,4.64,4.64,0,0,1,1.008,1.734,10.358,10.358,0,0,1,.3,2.918,10.529,10.529,0,0,1-.3,2.953,4.64,4.64,0,0,1-1.008,1.734,5.289,5.289,0,0,1-1.395,1.055,5.646,5.646,0,0,1-4.611,0,5.316,5.316,0,0,1-1.389-1.055,4.64,4.64,0,0,1-1.008-1.734A10.529,10.529,0,0,1,372.774,727.585Zm1.605-7.957v-2.59h2.59v2.59Zm5.977,7.98a8.768,8.768,0,0,0-.135-1.863,3.29,3.29,0,0,0-.463-1.031,2.269,2.269,0,0,0-1.969-.891,2.232,2.232,0,0,0-1.969.891,2.863,2.863,0,0,0-.475,1.031,9.41,9.41,0,0,0-.123,1.84,9.771,9.771,0,0,0,.123,1.881,2.751,2.751,0,0,0,.475,1.025,2.232,2.232,0,0,0,1.969.891,2.269,2.269,0,0,0,1.969-.891,3.154,3.154,0,0,0,.463-1.02A8.768,8.768,0,0,0,380.356,727.608Zm-1.758-7.98v-2.59h2.59v2.59Z" fill="#fff"/>
    <path d="M385.993,733.679V721.515h2.449v1.3h.047a4.37,4.37,0,0,1,5.191-.984,7.289,7.289,0,0,1,1.406,1.125,4.947,4.947,0,0,1,3.844-1.582,4.28,4.28,0,0,1,2.736,1.078,3.822,3.822,0,0,1,1.318,3.141v8.086h-2.449v-7.242a2.6,2.6,0,0,0-.691-1.922,2.324,2.324,0,0,0-1.711-.691,2.347,2.347,0,0,0-1.74.691,2.611,2.611,0,0,0-.686,1.922v7.242h-2.437v-7.242a2.6,2.6,0,0,0-.691-1.922,2.324,2.324,0,0,0-1.711-.691,2.347,2.347,0,0,0-1.74.691,2.611,2.611,0,0,0-.686,1.922v7.242Z" fill="#fff"/>
  </g>
  <g>
    <path d="M227.2,672.009V660.926H223.7V659.2h8.956v1.723h-3.507v11.083Z" fill="#9e9e9e"/>
    <path d="M234.023,672.009V659.2h8.191v1.837h-6.249v3.647h5.326v1.731h-5.326v3.762h6.249v1.828Z" fill="#9e9e9e"/>
    <path d="M250.617,668.432h2.048a4.452,4.452,0,0,1-1.617,2.738,4.627,4.627,0,0,1-2.883.944,4.272,4.272,0,0,1-2.536-.726,4.647,4.647,0,0,1-1.472-1.568,3.95,3.95,0,0,1-.439-1.23,36.135,36.135,0,0,1,0-5.959,3.95,3.95,0,0,1,.439-1.23,4.8,4.8,0,0,1,1.472-1.573,4.657,4.657,0,0,1,5.546.382,4.862,4.862,0,0,1,1.49,2.677h-2.048a2.828,2.828,0,0,0-.884-1.292,2.327,2.327,0,0,0-1.568-.554,2.385,2.385,0,0,0-1.187.281,2.616,2.616,0,0,0-.791.65,2.791,2.791,0,0,0-.515,1.081,24.246,24.246,0,0,0,0,5.124,2.644,2.644,0,0,0,.515,1.063,2.462,2.462,0,0,0,.791.664,2.427,2.427,0,0,0,1.187.276A2.642,2.642,0,0,0,250.617,668.432Z" fill="#9e9e9e"/>
    <path d="M261.05,672.009v-5.59h-5.08v5.59h-1.942V659.2h1.942v5.484h5.08V659.2h1.942v12.806Z" fill="#9e9e9e"/>
    <path d="M265.69,672.009V659.2h1.837l5.792,9.105h.035V659.2h1.951v12.806h-1.837l-5.792-9.105h-.044v9.105Z" fill="#9e9e9e"/>
    <path d="M278,672.009V659.2h1.942v12.806Z" fill="#9e9e9e"/>
    <path d="M289.228,668.432h2.048a4.452,4.452,0,0,1-1.617,2.738,4.627,4.627,0,0,1-2.883.944,4.272,4.272,0,0,1-2.536-.726,4.647,4.647,0,0,1-1.472-1.568,3.95,3.95,0,0,1-.439-1.23,36.135,36.135,0,0,1,0-5.959,3.95,3.95,0,0,1,.439-1.23,4.8,4.8,0,0,1,1.472-1.573,4.657,4.657,0,0,1,5.546.382,4.862,4.862,0,0,1,1.49,2.677h-2.048a2.828,2.828,0,0,0-.884-1.292,2.327,2.327,0,0,0-1.568-.554,2.385,2.385,0,0,0-1.187.281,2.616,2.616,0,0,0-.791.65,2.791,2.791,0,0,0-.515,1.081,24.246,24.246,0,0,0,0,5.124,2.644,2.644,0,0,0,.515,1.063,2.462,2.462,0,0,0,.791.664,2.427,2.427,0,0,0,1.187.276A2.642,2.642,0,0,0,289.228,668.432Z" fill="#9e9e9e"/>
    <path d="M291.293,672l4.676-12.814h1.6L302.244,672h-2.039l-.984-2.892h-4.86L293.341,672Zm3.639-4.605h3.709q-.4-1.187-.638-1.859t-.4-1.19q-.171-.519-.347-1.055t-.466-1.45q-.308.949-.492,1.516t-.356,1.095q-.171.527-.4,1.178T294.932,667.395Z" fill="#9e9e9e"/>
    <path d="M303.853,672.009V659.2h1.942v10.978h6.249v1.828Z" fill="#9e9e9e"/>
    <path d="M316.825,672l4.676-12.814h1.6L327.776,672h-2.039l-.984-2.892h-4.86L318.873,672Zm3.639-4.605h3.709q-.4-1.187-.638-1.859t-.4-1.19q-.171-.519-.347-1.055t-.466-1.45q-.308.949-.492,1.516t-.356,1.095q-.171.527-.4,1.178T320.464,667.395Z" fill="#9e9e9e"/>
    <path d="M328.269,670.356l1.283-1.459a5.947,5.947,0,0,0,1.661.932,5.576,5.576,0,0,0,1.969.352,3.113,3.113,0,0,0,1.863-.492,1.526,1.526,0,0,0,.677-1.292q0-1.512-1.67-1.731-.439-.053-.817-.105l-.879-.123a3.945,3.945,0,0,1-2.531-1.218,3.485,3.485,0,0,1-.87-2.386,3.573,3.573,0,0,1,1.094-2.689,4.259,4.259,0,0,1,3.081-1.055,6.519,6.519,0,0,1,2.232.378,9.081,9.081,0,0,1,1.925.958l-1.081,1.6a7.146,7.146,0,0,0-1.512-.712,5.142,5.142,0,0,0-1.652-.272,2.5,2.5,0,0,0-1.521.457,1.589,1.589,0,0,0-.624,1.371,1.51,1.51,0,0,0,.422,1.02,2.275,2.275,0,0,0,1.4.624c.17.029.375.061.615.092s.516.066.826.1a3.8,3.8,0,0,1,2.649,1.3,3.759,3.759,0,0,1,.857,2.391,3.31,3.31,0,0,1-1.222,2.742,5.105,5.105,0,0,1-3.278.976A7.163,7.163,0,0,1,328.269,670.356Z" fill="#9e9e9e"/>
    <path d="M338.6,670.356l1.283-1.459a5.947,5.947,0,0,0,1.661.932,5.576,5.576,0,0,0,1.969.352,3.113,3.113,0,0,0,1.863-.492,1.526,1.526,0,0,0,.677-1.292q0-1.512-1.67-1.731-.439-.053-.817-.105l-.879-.123a3.945,3.945,0,0,1-2.531-1.218,3.485,3.485,0,0,1-.87-2.386,3.573,3.573,0,0,1,1.094-2.689,4.259,4.259,0,0,1,3.081-1.055,6.519,6.519,0,0,1,2.232.378,9.081,9.081,0,0,1,1.925.958l-1.081,1.6a7.146,7.146,0,0,0-1.512-.712,5.142,5.142,0,0,0-1.652-.272,2.5,2.5,0,0,0-1.521.457,1.589,1.589,0,0,0-.624,1.371,1.51,1.51,0,0,0,.422,1.02,2.275,2.275,0,0,0,1.4.624c.17.029.375.061.615.092s.516.066.826.1a3.8,3.8,0,0,1,2.649,1.3,3.759,3.759,0,0,1,.857,2.391,3.31,3.31,0,0,1-1.222,2.742,5.105,5.105,0,0,1-3.278.976A7.163,7.163,0,0,1,338.6,670.356Z" fill="#9e9e9e"/>
    <path d="M350.039,672.009V659.2h1.942v12.806Z" fill="#9e9e9e"/>
    <path d="M353.563,670.356l1.283-1.459a5.947,5.947,0,0,0,1.661.932,5.576,5.576,0,0,0,1.969.352,3.113,3.113,0,0,0,1.863-.492,1.526,1.526,0,0,0,.677-1.292q0-1.512-1.67-1.731-.439-.053-.817-.105l-.879-.123a3.945,3.945,0,0,1-2.531-1.218,3.485,3.485,0,0,1-.87-2.386,3.573,3.573,0,0,1,1.094-2.689,4.259,4.259,0,0,1,3.081-1.055,6.519,6.519,0,0,1,2.232.378,9.081,9.081,0,0,1,1.925.958l-1.081,1.6a7.146,7.146,0,0,0-1.512-.712,5.142,5.142,0,0,0-1.652-.272,2.5,2.5,0,0,0-1.521.457,1.589,1.589,0,0,0-.624,1.371,1.51,1.51,0,0,0,.422,1.02,2.275,2.275,0,0,0,1.4.624c.17.029.375.061.615.092s.516.066.826.1a3.8,3.8,0,0,1,2.649,1.3,3.759,3.759,0,0,1,.857,2.391,3.31,3.31,0,0,1-1.222,2.742,5.105,5.105,0,0,1-3.278.976A7.163,7.163,0,0,1,353.563,670.356Z" fill="#9e9e9e"/>
    <path d="M367.187,672.009V660.926H363.68V659.2h8.956v1.723h-3.507v11.083Z" fill="#9e9e9e"/>
    <path d="M372.662,672l4.676-12.814h1.6L383.613,672h-2.039l-.984-2.892h-4.86L374.71,672Zm3.639-4.605h3.709q-.4-1.187-.638-1.859t-.4-1.19q-.171-.519-.347-1.055t-.466-1.45q-.308.949-.492,1.516t-.356,1.095q-.171.527-.4,1.178T376.3,667.395Z" fill="#9e9e9e"/>
    <path d="M385.222,672.009V659.2h1.837l5.792,9.105h.035V659.2h1.951v12.806H393l-5.792-9.105h-.044v9.105Z" fill="#9e9e9e"/>
    <path d="M404.118,668.432h2.048a4.452,4.452,0,0,1-1.617,2.738,4.627,4.627,0,0,1-2.883.944,4.272,4.272,0,0,1-2.536-.726,4.647,4.647,0,0,1-1.472-1.568,3.95,3.95,0,0,1-.439-1.23,36.135,36.135,0,0,1,0-5.959,3.95,3.95,0,0,1,.439-1.23,4.8,4.8,0,0,1,1.472-1.573,4.657,4.657,0,0,1,5.546.382,4.862,4.862,0,0,1,1.49,2.677h-2.048a2.828,2.828,0,0,0-.884-1.292,2.327,2.327,0,0,0-1.568-.554,2.385,2.385,0,0,0-1.187.281,2.616,2.616,0,0,0-.791.65,2.791,2.791,0,0,0-.515,1.081,24.246,24.246,0,0,0,0,5.124,2.644,2.644,0,0,0,.515,1.063,2.462,2.462,0,0,0,.791.664,2.427,2.427,0,0,0,1.187.276A2.642,2.642,0,0,0,404.118,668.432Z" fill="#9e9e9e"/>
    <path d="M407.528,672.009V659.2h8.191v1.837h-6.249v3.647H414.8v1.731h-5.326v3.762h6.249v1.828Z" fill="#9e9e9e"/>
  </g>
</svg>
